<?xml version="1.0" standalone="no"?>
<!DOCTYPE svg PUBLIC "-//W3C//DTD SVG 20010904//EN"
 "http://www.w3.org/TR/2001/REC-SVG-20010904/DTD/svg10.dtd">
<svg version="1.0" xmlns="http://www.w3.org/2000/svg"
 width="3200.000000pt" height="3200.000000pt" viewBox="0 0 3200.000000 3200.000000"
 preserveAspectRatio="xMidYMid meet">
<metadata>
Created by potrace 1.14, written by Peter Selinger 2001-2017
</metadata>
<g transform="translate(0.000000,3200.000000) scale(0.100000,-0.100000)"
fill="#000000" stroke="none">
<path d="M10140 22870 c-644 -47 -1176 -182 -1675 -425 -696 -340 -1256 -871
-1655 -1569 -480 -839 -679 -2077 -529 -3296 117 -956 508 -1773 1109 -2318
500 -454 1127 -754 1832 -877 537 -93 1176 -95 1728 -4 273 44 584 134 819
235 530 228 1116 707 1441 1177 l54 77 55 0 54 0 -6 -174 c-27 -710 -159
-1593 -328 -2189 -190 -675 -504 -1293 -877 -1727 -463 -538 -1132 -951 -1852
-1144 -236 -63 -578 -119 -900 -148 -194 -17 -900 -17 -1075 0 -307 31 -550
70 -790 129 -123 29 -276 72 -320 89 -13 5 -15 -78 -15 -698 l0 -705 72 -17
c266 -64 439 -87 1118 -148 187 -17 896 -16 1125 0 1035 76 1824 291 2505 680
726 416 1296 941 1702 1567 467 720 815 1588 1002 2500 144 704 234 1403 288
2250 20 312 17 1369 -5 1655 -92 1195 -331 2087 -770 2873 -355 635 -802 1141
-1313 1482 -618 413 -1245 639 -1984 715 -141 15 -655 21 -810 10z m671 -1390
c515 -51 948 -226 1313 -531 545 -455 929 -1098 1125 -1884 71 -284 106 -524
120 -816 20 -431 -40 -734 -213 -1079 -214 -426 -530 -785 -936 -1062 -393
-269 -796 -412 -1350 -480 -142 -17 -739 -17 -880 0 -548 67 -946 220 -1280
489 -371 300 -644 801 -770 1416 -91 448 -103 1062 -29 1602 103 761 382 1343
827 1727 410 353 852 547 1402 612 139 17 528 20 671 6z"/>
<path d="M20945 22874 c-354 -26 -563 -52 -785 -99 -800 -169 -1476 -533
-2015 -1086 -674 -691 -1044 -1551 -1161 -2699 -21 -214 -30 -796 -15 -1031
63 -964 330 -1735 812 -2339 484 -608 1206 -1038 2030 -1209 326 -67 608 -94
994 -95 870 0 1516 157 2077 505 392 244 730 544 975 865 39 52 84 115 100
139 28 45 28 45 87 45 l58 0 -7 -127 c-50 -978 -196 -1861 -414 -2503 -287
-846 -701 -1469 -1276 -1919 -779 -610 -1691 -873 -2945 -848 -582 12 -1012
78 -1513 233 -16 5 -17 -31 -15 -697 l3 -703 45 -13 c287 -85 1141 -173 1675
-173 957 0 1819 143 2515 418 497 195 1038 527 1450 889 150 132 406 392 515
523 596 718 1080 1780 1314 2885 270 1275 380 2826 286 4035 -90 1153 -339
2048 -790 2840 -377 664 -837 1159 -1405 1512 -581 362 -1153 561 -1820 633
-136 15 -657 28 -775 19z m595 -1394 c505 -53 920 -217 1279 -506 186 -150
413 -389 563 -594 435 -593 718 -1496 718 -2292 0 -427 -120 -802 -386 -1205
-213 -322 -471 -577 -814 -805 -359 -238 -750 -376 -1260 -445 -194 -26 -775
-26 -970 0 -449 60 -794 179 -1086 376 -220 147 -370 298 -518 520 -248 371
-396 819 -458 1386 -21 189 -17 837 5 1045 78 710 269 1234 601 1646 139 172
390 388 606 520 305 186 695 313 1080 353 119 12 526 13 640 1z"/>
</g>
</svg>
